<?xml version="1.0" encoding="UTF-8"?><svg id="a" xmlns="http://www.w3.org/2000/svg" xmlns:xlink="http://www.w3.org/1999/xlink" viewBox="0 0 670 500"><defs><style>.j{fill:#0d1168;}.k{fill:url(#c);}.l{fill:url(#f);}.m{fill:url(#g);}.n{fill:url(#b);}.o{fill:url(#i);}.p{fill:url(#h);}.q{fill:url(#d);}.r{fill:url(#e);}</style><linearGradient id="b" x1="271.1" y1="83.81" x2="303.49" y2="341.28" gradientTransform="matrix(1, 0, 0, 1, 0, 0)" gradientUnits="userSpaceOnUse"><stop offset="0" stop-color="#d534ff"/><stop offset="1" stop-color="#2463ff"/></linearGradient><linearGradient id="c" x1="248.16" y1="86.69" x2="280.54" y2="344.16" xlink:href="#b"/><linearGradient id="d" x1="275.78" y1="83.22" x2="308.17" y2="340.69" xlink:href="#b"/><linearGradient id="e" x1="280.25" y1="82.66" x2="312.63" y2="340.13" xlink:href="#b"/><linearGradient id="f" x1="323.28" y1="77.24" x2="355.66" y2="334.71" xlink:href="#b"/><linearGradient id="g" x1="294.38" y1="80.88" x2="326.76" y2="338.35" xlink:href="#b"/><linearGradient id="h" x1="336.12" y1="75.63" x2="368.51" y2="333.1" xlink:href="#b"/><linearGradient id="i" x1="311.72" y1="78.7" x2="344.11" y2="336.17" xlink:href="#b"/></defs><g><path class="j" d="M226.93,369.91c1.75-2.18,2.63-4.88,2.63-8.08,0-2.71-.58-5.06-1.73-7.07-1.15-2-2.74-3.61-4.78-4.81-2.03-1.2-4.3-1.9-6.81-2.11,1.55-.2,3.03-.73,4.44-1.58,1.4-.85,2.54-2.08,3.42-3.68,.88-1.6,1.32-3.56,1.32-5.87,0-3.06-.83-5.53-2.48-7.41-1.66-1.88-3.92-3.26-6.81-4.14-2.88-.88-6.16-1.32-9.81-1.32h-21.73v.75h.98c1.3,0,2.42,.46,3.35,1.39,.93,.93,1.42,2.04,1.47,3.35v41.66c-.05,1.3-.54,2.42-1.47,3.35-.93,.93-2.04,1.39-3.35,1.39h-.98v.75h23.84c4.21,0,7.91-.55,11.09-1.65,3.18-1.1,5.65-2.74,7.41-4.93Zm-11.77-2.07c-.98,1.81-2.33,3.13-4.06,3.99-1.73,.85-3.72,1.28-5.98,1.28h-3.46v-46.03h2.18c1.9,0,3.58,.35,5.04,1.05,1.45,.7,2.57,1.83,3.35,3.38,.78,1.55,1.17,3.61,1.17,6.17,0,1.86-.25,3.45-.75,4.78-.5,1.33-1.19,2.39-2.07,3.2-.88,.8-1.87,1.39-2.97,1.77s-2.23,.56-3.38,.56v.68c1.65,0,3.23,.23,4.74,.68s2.82,1.17,3.95,2.14c1.13,.98,2.03,2.24,2.71,3.8,.68,1.55,1.02,3.43,1.02,5.64,0,2.81-.49,5.11-1.47,6.92Z"/><path class="j" d="M295.1,335.58c-2.43-4.06-5.87-7.21-10.3-9.44-4.44-2.23-9.66-3.35-15.68-3.35s-11.24,1.12-15.68,3.35c-4.44,2.23-7.86,5.39-10.27,9.48-2.41,4.09-3.61,8.94-3.61,14.55s1.2,10.53,3.61,14.59c2.41,4.06,5.83,7.21,10.27,9.44,4.44,2.23,9.66,3.35,15.68,3.35s11.24-1.11,15.68-3.35c4.44-2.23,7.87-5.39,10.3-9.48,2.43-4.09,3.65-8.94,3.65-14.55s-1.22-10.53-3.65-14.59Zm-10.87,27.45c-1.4,3.61-3.38,6.41-5.94,8.39-2.56,1.98-5.62,2.97-9.17,2.97s-6.56-.99-9.14-2.97c-2.58-1.98-4.58-4.78-5.98-8.39-1.4-3.61-2.11-7.9-2.11-12.86s.7-9.25,2.11-12.86c1.4-3.61,3.4-6.4,5.98-8.38,2.58-1.98,5.63-2.97,9.14-2.97s6.62,.99,9.17,2.97c2.56,1.98,4.54,4.78,5.94,8.38,1.4,3.61,2.11,7.9,2.11,12.86s-.7,9.25-2.11,12.86Z"/><path class="j" d="M323.31,374.2c4.44,2.23,9.66,3.35,15.68,3.35s11.24-1.11,15.68-3.35c4.44-2.23,7.87-5.39,10.3-9.48,2.43-4.09,3.65-8.94,3.65-14.55s-1.22-10.53-3.65-14.59c-2.43-4.06-5.87-7.21-10.3-9.44-4.44-2.23-9.66-3.35-15.68-3.35s-11.24,1.12-15.68,3.35c-4.44,2.23-7.86,5.39-10.27,9.48-2.41,4.09-3.61,8.94-3.61,14.55s1.2,10.53,3.61,14.59c2.41,4.06,5.83,7.21,10.27,9.44Zm.56-36.89c1.4-3.61,3.4-6.4,5.98-8.38,2.58-1.98,5.63-2.97,9.14-2.97s6.62,.99,9.17,2.97c2.56,1.98,4.54,4.78,5.94,8.38,1.4,3.61,2.11,7.9,2.11,12.86s-.7,9.25-2.11,12.86c-1.4,3.61-3.38,6.41-5.94,8.39-2.56,1.98-5.62,2.97-9.17,2.97s-6.56-.99-9.14-2.97c-2.58-1.98-4.58-4.78-5.98-8.39-1.4-3.61-2.11-7.9-2.11-12.86s.7-9.25,2.11-12.86Z"/><path class="j" d="M424.04,335.51l.75,.08v-13.16c-.45,.2-1.2,.4-2.26,.6-1.05,.2-2.19,.38-3.42,.53-1.23,.15-2.39,.23-3.5,.23h-29.78c-1.05,0-2.21-.08-3.46-.23-1.25-.15-2.4-.33-3.42-.53-1.03-.2-1.79-.4-2.29-.6v13.16l.75-.08v-.83c0-2.36,.69-4.22,2.07-5.6,1.38-1.38,3.22-2.09,5.53-2.14h10.08v44.07c-.05,1.3-.54,2.42-1.47,3.35-.93,.93-2.04,1.39-3.35,1.39h-.98v.75h22.86v-.75h-.98c-1.3,0-2.42-.46-3.35-1.39-.93-.93-1.42-2.04-1.47-3.35v-44.07h10c2.36,.05,4.22,.76,5.6,2.14,1.38,1.38,2.07,3.25,2.07,5.6v.83Z"/><path class="j" d="M481.51,325.77c.84-.83,1.84-1.25,3.02-1.25h.88v-.67h-20.6v.67h.88c1.17,0,2.19,.42,3.05,1.25,.86,.83,1.29,1.83,1.29,3v17.31h-21.95v-17.31c.04-1.17,.48-2.17,1.32-3,.84-.83,1.84-1.25,3.02-1.25h.88v-.67h-20.6v.67h.88c1.17,0,2.18,.42,3.02,1.25,.84,.83,1.28,1.83,1.32,3v37.32c-.05,1.17-.49,2.17-1.32,3-.84,.83-1.84,1.25-3.02,1.25h-.88v.67h20.6v-.67h-.88c-1.18,0-2.18-.41-3.02-1.25-.84-.83-1.28-1.83-1.32-3v-17.11h21.95v17.11c0,1.17-.43,2.17-1.29,3-.86,.83-1.87,1.25-3.05,1.25h-.88v.67h20.6v-.67h-.88c-1.18,0-2.18-.41-3.02-1.25-.84-.83-1.28-1.83-1.32-3v-37.32c.04-1.17,.48-2.17,1.32-3Z"/></g><g><path class="n" d="M284.67,170.13l5.4-27.86,3.41-17.4c-.6,.09-1.2,.18-1.8,.27-.06,0-.12,.02-.18,.03-4.76,.72-9.59,1.6-14.47,2.65,0,0,0,0,.02,0,.02,.02,.04,.04,.07,.06,.02,.02,.04,.03,.06,.06,.02,.02,.03,.03,.04,.04,.08,.08,.16,.16,.24,.26,.02,.02,.03,.04,.05,.06,.02,.02,.03,.04,.05,.07,1.06,1.32,3.36,5.4,3.85,16.18,2.24-.58,4.45-1.13,6.64-1.61l-1.4,7.18c-1.72,.41-3.44,.86-5.18,1.33-.13,5.59-.67,12.48-1.85,20.94,.97-.41,1.96-.81,2.95-1.19l-2.91,15.02c-.87,.39-1.71,.8-2.51,1.22-.56,3.04-1.11,6.04-1.66,9h0c-.56,3.1-1.13,6.15-1.68,9.18-.05,.21-.06,.34-.07,.4-.86,4.68-1.71,9.31-2.56,13.89-.03,.19-.07,.39-.11,.58h3.83l9.76-50.35Z"/><path class="k" d="M281.86,290.83h0c-5.63-1.12-10.92-2.81-12.96-5.3-.75-.92-1.05-1.92-.89-2.97,2.19-14.31,4.75-28.24,4.78-28.38h0l4.5-23.22h-23l-.47,2.55h14.87c-.09,.52-.18,1.03-.28,1.54-2.13,11.6-4.29,23.32-6.6,35.81-2.47,11.74-.37,20.86,12.23,23.55h13.09c-2.19-.44-3.93-1.79-5.25-3.58Z"/><path class="q" d="M276,220.48h3.31l15.34-79.12,3.35-17.09c-1.13,.14-2.26,.29-3.40,.45l-3.48,17.76-15.12,78Z"/><path class="r" d="M280.4,220.48h3.4l10.66-54.98,4.83-24.94,3.29-16.81c-.57,.05-1.14,.12-1.71,.18-.58,.06-1.17,.13-1.77,.21l-4.79,24.5-13.92,71.84Z"/><path class="l" d="M404.29,210.09c1.82-2.08,3.58-4.2,4.95-6.4,3.17-5.09,2.23-9.52,1.74-12.96-4.42-29.9-43.03-42.81-72.66-45.18-11.52-.9-24.06-.47-37.42,1.68l.87-4.5,.48-2.47c13-1.92,25.26-2.27,36.57-1.36,20.6,1.65,43.7,8.4,59.43,21.09,8.84,7.15,18.95,18.99,16.21,32.18,5.86-15.01,7.33-35.3-8.4-48.36-18.6-15.41-56.9-24.79-102.37-20.18l-3.43,17.52-15.37,79.33h4.35c.04-.19,.08-.39,.11-.58,2.54-13.03,5.07-26.06,7.53-39.25-.87,.2-1.74,.42-2.6,.63l2.81-14.48c.6-.13,1.2-.27,1.81-.39,35.33-7.39,74.56,2.08,92.49,19.03,.02,0,.02,.02,.04,.03,0,0,23.14,21.33-8.42,34.09-1.55,.62-3.59,1.36-5.86,2h-121.15l-.74,4.03h143.11l17.61,22.99c1.76,2.48,3.03,4.06,3.95,5.21,2.01,2.5,2.37,2.95,1.6,5.41-1.39,4.43-5.56,12.14-12.75,19.25-5.64,5.58-15,12.57-27.56,14.17h-.07l-81.49,.35c-.43-.02-4.57-.23-9.72-.85,.3,.26,.62,.5,.95,.75,.51,.38,.99,.66,1.49,.88t0,.02h.02c.82,.36,1.67,.55,2.65,.6,3.07,.35,6.9,.08,6.9,.08l47.72-.03,29.11,.02c.37,0,.9,0,1.53-.04,0,0,.48,.02,1.35-.03,1.93-.07,3.95-.36,5.99-.84,.05,0,.09-.02,.14-.03,.05-.01,.09-.02,.14-.03,9.5-2.11,26.21-9.02,40.14-31.39,1.17-1.71,2.06-3.18,2.45-4.14,5.38-12.93-8.64-33.6-26.27-47.81Z"/><path class="m" d="M303.96,179.22c-2.79,14.83-5.35,28.13-7.86,41.26h18.27c2.67-14.32,5.35-28.66,8.02-42.97-4.88-.08-11.49,.49-18.42,1.71Z"/><path class="p" d="M305.96,272.66c3.17,4.63,8.12,5.75,8.57,5.85,1.49,.06,40.76,1.69,69.65-.68,15.11-1.23,22.86-6.81,26.7-11.26,3.66-4.24,4.56-8.31,4.73-9.24l-19.31-26.36h-87.74c-.35,2.06-1.71,9.97-4.77,26.17-1.21,6.42-.48,11.65,2.17,15.52Zm.34-8.84c1.87-10.09,3.75-20.2,5.64-30.3h61.22c3.13,2.78,7.49,6.83,11.62,11.32,8.25,8.95,15.65,19.66,10.77,25.48-.04,.06-.09,.11-.13,.16-.05,.06-.11,.12-.16,.18-1.07,1.13-2.63,2.06-4.78,2.73-.02,0-.03,0-.04,.01-.66,.11-1.18,.22-1.59,.33-8.57,1.46-26.49,2.97-63.97,2.7-5-.03-8.23-.49-10.32-1.03-1.48-.59-3.34-1.61-5.28-3.3-3.46-3.28-3.04-7.74-2.98-8.28Z"/><path class="o" d="M381.13,291.54c12.25-1.56,21.4-8.4,26.91-13.86,7.05-6.98,11.13-14.5,12.48-18.81,.6-1.92,.57-1.97-1.41-4.42-.94-1.17-2.22-2.76-3.98-5.25l-17.27-22.56H244.67l-.6,3.26h152.77l19.89,27.14-.02,.21c-.02,.2-.63,4.91-4.97,9.96-3.96,4.63-11.95,10.41-27.47,11.68-12.1,.99-26.01,1.28-38.21,1.28-17.43,0-31.38-.59-31.62-.6h-.07c-.23-.05-5.71-1.1-9.28-6.29-2.83-4.12-3.62-9.62-2.35-16.34,2.98-15.77,4.34-23.67,4.73-25.98h-29.1l-4.54,23.41h0c-.05,.24-2.59,14.11-4.77,28.35-.11,.75,.1,1.45,.66,2.13,1.74,2.13,6.27,3.64,11.3,4.71-1.74-3.01-2.52-6.83-2.45-9.81,.04-2.65,.41-5.32,.85-7.82,2.47-13.23,4.76-25.2,7-36.88,.1-.51,.19-1.02,.29-1.54h6.84c-2.54,13.05-5.05,26.08-7.48,39.26-.85,4.56-1.42,10.37,.36,14.66,.5,1.24,1.23,2.36,2.18,3.4,5.95,.79,10.97,1.04,11.08,1.05l81.43-.34Zm-76.93-14.7c.15,.23,.29,.47,.49,.71,2.91,3.69,9.49,5.54,20.13,5.62,1.94,.02,5.08,.04,9,.04,8.97,0,22-.12,33.92-.73,13.96-.72,22.29-1.86,27.39-3.21-.02,.19-.04,.37-.08,.57-.43,1.79-1.72,4.14-5.32,5.63-1.55,.48-3.16,.88-4.83,1.21-1.18,.16-2.16,.34-3.01,.54-6.55,1.04-13.63,1.29-20.39,1.66-4.67,.28-30.41,.83-45.85,.96-10.95-.42-11.53-8.52-11.57-9.56-.03-1.09,0-2.24,.1-3.43Z"/></g></svg> 