<?xml version="1.0" encoding="UTF-8"?><svg id="a" xmlns="http://www.w3.org/2000/svg" viewBox="0 0 358.43 119.38"><defs><style>.b{fill:#fff;}</style></defs><path class="b" d="M71.13,79.1c1.71-2.12,2.56-4.75,2.56-7.87,0-2.64-.56-4.93-1.69-6.89-1.12-1.95-2.67-3.52-4.65-4.69-1.98-1.17-4.19-1.86-6.63-2.05,1.51-.19,2.95-.71,4.32-1.54,1.37-.83,2.48-2.03,3.33-3.59,.85-1.56,1.28-3.47,1.28-5.71,0-2.98-.81-5.38-2.42-7.22-1.61-1.83-3.82-3.17-6.63-4.03-2.81-.85-6-1.28-9.56-1.28H29.89v.73h.95c1.27,0,2.36,.45,3.26,1.36,.9,.9,1.38,1.99,1.43,3.26v40.58c-.05,1.27-.53,2.36-1.43,3.26-.9,.9-1.99,1.36-3.26,1.36h-.95v.73h23.22c4.1,0,7.7-.54,10.8-1.61,3.1-1.07,5.51-2.67,7.22-4.8Zm-11.46-2.01c-.95,1.76-2.27,3.05-3.96,3.88-1.69,.83-3.63,1.25-5.82,1.25h-3.37V37.39h2.12c1.86,0,3.49,.34,4.91,1.03,1.42,.68,2.5,1.78,3.26,3.3,.76,1.51,1.14,3.52,1.14,6.01,0,1.81-.24,3.36-.73,4.65-.49,1.29-1.16,2.33-2.01,3.11-.86,.78-1.82,1.36-2.89,1.72s-2.17,.55-3.3,.55v.66c1.61,0,3.15,.22,4.61,.66,1.47,.44,2.75,1.14,3.85,2.09,1.1,.95,1.98,2.19,2.64,3.7,.66,1.51,.99,3.35,.99,5.49,0,2.74-.48,4.98-1.43,6.74Z"/><path class="b" d="M137.54,45.66c-2.37-3.96-5.71-7.02-10.03-9.19-4.32-2.17-9.41-3.26-15.27-3.26s-10.95,1.09-15.27,3.26c-4.32,2.17-7.66,5.25-10,9.23-2.34,3.98-3.52,8.7-3.52,14.17s1.17,10.25,3.52,14.21c2.34,3.96,5.68,7.02,10,9.19,4.32,2.17,9.41,3.26,15.27,3.26s10.95-1.09,15.27-3.26c4.32-2.17,7.67-5.25,10.03-9.23,2.37-3.98,3.55-8.7,3.55-14.17s-1.18-10.26-3.55-14.21Zm-10.59,26.74c-1.37,3.52-3.3,6.24-5.79,8.17-2.49,1.93-5.47,2.89-8.94,2.89s-6.39-.96-8.9-2.89c-2.52-1.93-4.46-4.65-5.82-8.17-1.37-3.52-2.05-7.69-2.05-12.53s.68-9.01,2.05-12.53c1.37-3.52,3.31-6.24,5.82-8.17,2.51-1.93,5.48-2.89,8.9-2.89s6.45,.96,8.94,2.89c2.49,1.93,4.42,4.65,5.79,8.17,1.37,3.52,2.05,7.69,2.05,12.53s-.68,9.01-2.05,12.53Z"/><path class="b" d="M165.01,83.28c4.32,2.17,9.41,3.26,15.27,3.26s10.95-1.09,15.27-3.26c4.32-2.17,7.67-5.25,10.04-9.23,2.37-3.98,3.55-8.7,3.55-14.17s-1.18-10.26-3.55-14.21c-2.37-3.96-5.71-7.02-10.04-9.19-4.32-2.17-9.41-3.26-15.27-3.26s-10.95,1.09-15.27,3.26c-4.32,2.17-7.66,5.25-10,9.23-2.34,3.98-3.52,8.7-3.52,14.17s1.17,10.25,3.52,14.21c2.34,3.96,5.68,7.02,10,9.19Zm.55-35.93c1.37-3.52,3.31-6.24,5.82-8.17,2.51-1.93,5.48-2.89,8.9-2.89s6.45,.96,8.94,2.89c2.49,1.93,4.42,4.65,5.79,8.17,1.37,3.52,2.05,7.69,2.05,12.53s-.68,9.01-2.05,12.53c-1.37,3.52-3.3,6.24-5.79,8.17-2.49,1.93-5.47,2.89-8.94,2.89s-6.39-.96-8.9-2.89c-2.52-1.93-4.46-4.65-5.82-8.17-1.37-3.52-2.05-7.69-2.05-12.53s.68-9.01,2.05-12.53Z"/><path class="b" d="M263.13,45.59l.73,.07v-12.82c-.44,.2-1.17,.39-2.2,.59-1.03,.2-2.14,.37-3.33,.51-1.2,.15-2.33,.22-3.41,.22h-29.01c-1.03,0-2.15-.07-3.37-.22-1.22-.15-2.33-.32-3.33-.51-1-.19-1.75-.39-2.23-.59v12.82l.73-.07v-.81c0-2.29,.67-4.11,2.02-5.46,1.34-1.34,3.14-2.04,5.38-2.09h9.82v42.93c-.05,1.27-.53,2.36-1.43,3.26-.9,.9-1.99,1.36-3.26,1.36h-.95v.73h22.27v-.73h-.95c-1.27,0-2.36-.45-3.26-1.36-.9-.9-1.38-1.99-1.43-3.26V37.24h9.74c2.29,.05,4.11,.74,5.46,2.09,1.34,1.34,2.01,3.16,2.01,5.46v.81Z"/><path class="b" d="M324.33,36.32c.9-.9,1.99-1.36,3.26-1.36h.95v-.73h-22.27v.73h.95c1.27,0,2.37,.45,3.3,1.36,.93,.9,1.39,1.99,1.39,3.26v18.83h-23.73v-18.83c.05-1.27,.52-2.36,1.43-3.26,.9-.9,1.99-1.36,3.26-1.36h.95v-.73h-22.27v.73h.95c1.27,0,2.36,.45,3.26,1.36,.9,.9,1.38,1.99,1.43,3.26v40.58c-.05,1.27-.53,2.36-1.43,3.26-.9,.9-1.99,1.36-3.26,1.36h-.95v.73h22.27v-.73h-.95c-1.27,0-2.36-.45-3.26-1.36-.9-.9-1.38-1.99-1.43-3.26v-18.61h23.73v18.61c0,1.27-.46,2.36-1.39,3.26-.93,.9-2.03,1.36-3.3,1.36h-.95v.73h22.27v-.73h-.95c-1.27,0-2.36-.45-3.26-1.36-.9-.9-1.38-1.99-1.43-3.26V39.58c.05-1.27,.52-2.36,1.43-3.26Z"/></svg>