<?xml version="1.0" encoding="UTF-8"?><svg id="a" xmlns="http://www.w3.org/2000/svg" xmlns:xlink="http://www.w3.org/1999/xlink" viewBox="0 0 670 500"><defs><style>.j{fill:#0d1168;}.k{fill:url(#c);}.l{fill:url(#f);}.m{fill:url(#g);}.n{fill:url(#b);}.o{fill:url(#i);}.p{fill:url(#h);}.q{fill:url(#d);}.r{fill:url(#e);}</style><linearGradient id="b" x1="99.07" y1="152.92" x2="124.29" y2="353.39" gradientTransform="matrix(1, 0, 0, 1, 0, 0)" gradientUnits="userSpaceOnUse"><stop offset="0" stop-color="#d534ff"/><stop offset="1" stop-color="#2463ff"/></linearGradient><linearGradient id="c" x1="81.21" y1="155.17" x2="106.43" y2="355.64" xlink:href="#b"/><linearGradient id="d" x1="102.72" y1="152.46" x2="127.94" y2="352.93" xlink:href="#b"/><linearGradient id="e" x1="106.2" y1="152.03" x2="131.41" y2="352.5" xlink:href="#b"/><linearGradient id="f" x1="139.7" y1="147.81" x2="164.92" y2="348.28" xlink:href="#b"/><linearGradient id="g" x1="117.2" y1="150.64" x2="142.42" y2="351.11" xlink:href="#b"/><linearGradient id="h" x1="149.7" y1="146.56" x2="174.92" y2="347.02" xlink:href="#b"/><linearGradient id="i" x1="130.71" y1="148.94" x2="155.92" y2="349.41" xlink:href="#b"/></defs><g><path class="n" d="M109.64,220.13l4.2-21.69,2.65-13.55c-.47,.07-.93,.14-1.4,.21-.05,0-.09,.01-.14,.02-3.71,.56-7.47,1.25-11.26,2.06h.01s.03,.03,.06,.05c.01,.01,.03,.03,.05,.04,.01,.01,.02,.02,.03,.03,.07,.06,.13,.13,.19,.2,.01,.02,.03,.03,.04,.04,.02,.02,.03,.03,.04,.06,.82,1.03,2.61,4.21,3,12.6,1.74-.46,3.47-.88,5.17-1.26l-1.09,5.59c-1.34,.32-2.68,.67-4.04,1.04-.1,4.36-.52,9.72-1.44,16.3,.76-.32,1.52-.63,2.3-.93l-2.27,11.69c-.68,.31-1.33,.62-1.96,.95-.43,2.37-.86,4.7-1.29,7h0c-.44,2.41-.88,4.79-1.31,7.14-.04,.17-.05,.26-.06,.31-.67,3.65-1.33,7.25-1.99,10.82-.03,.15-.06,.3-.08,.46h2.98l7.6-39.2Z"/><path class="k" d="M107.45,314.12h0c-4.38-.88-8.5-2.19-10.09-4.12-.59-.72-.82-1.5-.69-2.32,1.7-11.14,3.7-21.98,3.72-22.09h0l3.5-18.08h-17.91l-.37,1.99h11.57c-.07,.4-.14,.8-.22,1.2-1.66,9.03-3.34,18.16-5.14,27.88-1.92,9.14-.29,16.25,9.53,18.33h10.19c-1.71-.34-3.06-1.39-4.09-2.79Z"/><path class="q" d="M102.89,259.34h2.58l11.94-61.6,2.6-13.31c-.88,.11-1.76,.23-2.65,.35l-2.71,13.83-11.77,60.73Z"/><path class="r" d="M106.32,259.34h2.65l8.3-42.81,3.76-19.42,2.56-13.09c-.44,.04-.89,.09-1.33,.14-.46,.05-.91,.1-1.38,.16l-3.73,19.08-10.84,55.94Z"/><path class="l" d="M202.78,251.25c1.41-1.62,2.79-3.27,3.86-4.98,2.47-3.97,1.74-7.41,1.35-10.09-3.44-23.28-33.5-33.34-56.58-35.18-8.97-.7-18.74-.36-29.14,1.31l.68-3.5,.37-1.92c10.12-1.49,19.67-1.77,28.47-1.06,16.04,1.29,34.03,6.54,46.28,16.42,6.89,5.57,14.75,14.79,12.63,25.05,4.56-11.69,5.71-27.49-6.54-37.65-14.49-12-44.3-19.3-79.7-15.72l-2.67,13.64-11.97,61.77h3.39c.03-.15,.06-.3,.09-.46,1.98-10.15,3.94-20.29,5.86-30.56-.68,.16-1.35,.32-2.03,.49l2.19-11.27c.47-.1,.94-.21,1.41-.31,27.51-5.75,58.06,1.62,72.01,14.82,.01,0,.02,.02,.03,.02,0,0,18.02,16.61-6.55,26.54-1.21,.49-2.79,1.06-4.56,1.55H87.33l-.58,3.13h111.43l13.71,17.9c1.37,1.93,2.36,3.16,3.08,4.06,1.56,1.95,1.84,2.3,1.24,4.22-1.08,3.45-4.33,9.45-9.93,14.99-4.39,4.35-11.68,9.79-21.46,11.03h-.05l-63.45,.27c-.33-.01-3.55-.18-7.56-.66,.24,.2,.48,.39,.74,.58,.4,.3,.77,.51,1.16,.68t0,.01h.02c.64,.28,1.3,.43,2.06,.47,2.39,.27,5.37,.06,5.37,.06l37.15-.03h22.67c.29,.01,.7,0,1.19-.02,0,0,.37,.01,1.05-.02,1.51-.06,3.07-.28,4.66-.65,.04,0,.07-.01,.11-.02,.04,0,.07-.01,.11-.02,7.4-1.65,20.4-7.02,31.25-24.44,.91-1.33,1.6-2.48,1.91-3.22,4.19-10.07-6.73-26.16-20.45-37.23Z"/><path class="m" d="M124.66,227.21c-2.18,11.54-4.16,21.9-6.12,32.13h14.22c2.08-11.15,4.16-22.32,6.24-33.46-3.8-.07-8.95,.38-14.34,1.33Z"/><path class="p" d="M126.22,299.97c2.47,3.6,6.32,4.48,6.67,4.55,1.16,.05,31.73,1.31,54.23-.53,11.76-.96,17.8-5.3,20.79-8.77,2.85-3.3,3.55-6.47,3.68-7.2l-15.04-20.52h-68.31c-.27,1.6-1.33,7.76-3.71,20.38-.94,5-.38,9.07,1.69,12.08Zm.26-6.88c1.46-7.86,2.92-15.73,4.39-23.59h47.67c2.44,2.16,5.83,5.32,9.05,8.81,6.43,6.97,12.18,15.3,8.39,19.84-.03,.04-.07,.09-.1,.13-.04,.05-.08,.09-.12,.14-.83,.88-2.05,1.6-3.72,2.13-.01,0-.02,0-.03,0-.51,.09-.92,.17-1.24,.26-6.67,1.13-20.62,2.31-49.81,2.1-3.89-.02-6.41-.38-8.03-.8-1.16-.46-2.6-1.25-4.11-2.57-2.69-2.55-2.37-6.03-2.32-6.45Z"/><path class="o" d="M184.75,314.67c9.54-1.22,16.66-6.54,20.95-10.79,5.49-5.44,8.67-11.29,9.72-14.65,.47-1.49,.44-1.53-1.1-3.44-.73-.91-1.73-2.15-3.1-4.08l-13.45-17.56H78.5l-.47,2.54h118.95l15.49,21.13-.02,.16c-.02,.15-.49,3.82-3.87,7.75-3.09,3.61-9.3,8.11-21.39,9.1-9.42,.77-20.25,1-29.75,1-13.57,0-24.43-.46-24.62-.47h-.06c-.18-.04-4.44-.85-7.22-4.9-2.2-3.21-2.82-7.49-1.83-12.72,2.32-12.28,3.38-18.43,3.69-20.23h-22.66l-3.53,18.23h0c-.04,.19-2.02,10.98-3.71,22.07-.09,.58,.08,1.13,.51,1.66,1.36,1.66,4.88,2.84,8.8,3.66-1.35-2.35-1.96-5.32-1.91-7.64,.03-2.06,.32-4.14,.66-6.09,1.93-10.3,3.7-19.62,5.45-28.71,.08-.4,.15-.79,.23-1.2h5.33c-1.98,10.16-3.93,20.31-5.83,30.57-.66,3.55-1.11,8.07,.28,11.41,.39,.97,.96,1.84,1.7,2.64,4.63,.61,8.54,.81,8.63,.82l63.4-.27Zm-59.9-11.45c.11,.18,.23,.37,.38,.56,2.26,2.88,7.39,4.31,15.67,4.37,1.51,.01,3.96,.03,7.01,.03,6.99,0,17.13-.09,26.41-.57,10.87-.56,17.36-1.45,21.33-2.5-.01,.15-.03,.29-.06,.44-.33,1.4-1.34,3.22-4.14,4.39-1.21,.37-2.46,.69-3.76,.94-.92,.12-1.68,.26-2.34,.42-5.1,.81-10.62,1.01-15.88,1.29-3.63,.21-23.68,.65-35.7,.74-8.53-.33-8.98-6.64-9.01-7.45-.02-.85,0-1.74,.08-2.67Z"/></g><g><path class="j" d="M295,272.4c1.97-2.45,2.96-5.48,2.96-9.09,0-3.04-.65-5.69-1.94-7.94-1.3-2.25-3.08-4.06-5.37-5.41s-4.83-2.14-7.65-2.37c1.75-.22,3.41-.82,4.99-1.77,1.58-.96,2.86-2.34,3.85-4.14,.99-1.8,1.48-4,1.48-6.59,0-3.44-.93-6.21-2.79-8.32-1.86-2.11-4.41-3.66-7.65-4.65-3.24-.98-6.92-1.48-11.03-1.48h-24.42v.85h1.1c1.46,0,2.72,.52,3.76,1.56,1.04,1.04,1.59,2.3,1.65,3.76v46.82c-.06,1.47-.61,2.72-1.65,3.76-1.04,1.04-2.3,1.56-3.76,1.56h-1.1v.85h26.79c4.73,0,8.89-.62,12.47-1.86,3.58-1.24,6.35-3.08,8.32-5.54Zm-13.23-2.32c-1.1,2.03-2.62,3.52-4.56,4.48-1.94,.96-4.18,1.44-6.72,1.44h-3.89v-51.72h2.45c2.14,0,4.03,.39,5.66,1.18,1.63,.79,2.89,2.06,3.76,3.8,.87,1.75,1.31,4.06,1.31,6.93,0,2.08-.28,3.87-.85,5.37-.56,1.49-1.34,2.69-2.32,3.59-.99,.9-2.1,1.56-3.34,1.99-1.24,.42-2.51,.63-3.8,.63v.76c1.86,0,3.63,.25,5.32,.76,1.69,.51,3.17,1.31,4.44,2.41,1.27,1.1,2.28,2.52,3.04,4.27,.76,1.75,1.14,3.86,1.14,6.34,0,3.16-.55,5.75-1.65,7.77Z"/><path class="j" d="M371.61,233.82c-2.73-4.56-6.59-8.1-11.58-10.61-4.99-2.51-10.86-3.76-17.62-3.76s-12.63,1.25-17.62,3.76c-4.99,2.51-8.83,6.06-11.54,10.65-2.7,4.59-4.06,10.04-4.06,16.35s1.35,11.83,4.06,16.4c2.7,4.56,6.55,8.1,11.54,10.61,4.99,2.51,10.86,3.76,17.62,3.76s12.64-1.25,17.62-3.76c4.99-2.51,8.84-6.06,11.58-10.65,2.73-4.59,4.1-10.04,4.1-16.35s-1.37-11.83-4.1-16.4Zm-12.21,30.85c-1.58,4.06-3.8,7.2-6.68,9.42-2.87,2.23-6.31,3.34-10.31,3.34s-7.37-1.11-10.27-3.34c-2.9-2.22-5.14-5.37-6.72-9.42-1.58-4.06-2.37-8.87-2.37-14.45s.79-10.4,2.37-14.45c1.58-4.06,3.82-7.2,6.72-9.42,2.9-2.22,6.32-3.34,10.27-3.34s7.44,1.11,10.31,3.34c2.87,2.23,5.1,5.37,6.68,9.42,1.58,4.06,2.37,8.87,2.37,14.45s-.79,10.39-2.37,14.45Z"/><path class="j" d="M450.12,233.82c-2.73-4.56-6.59-8.1-11.58-10.61-4.99-2.51-10.86-3.76-17.62-3.76s-12.63,1.25-17.62,3.76c-4.99,2.51-8.83,6.06-11.54,10.65-2.7,4.59-4.06,10.04-4.06,16.35s1.35,11.83,4.06,16.4c2.7,4.56,6.55,8.1,11.54,10.61,4.99,2.51,10.86,3.76,17.62,3.76s12.63-1.25,17.62-3.76c4.99-2.51,8.84-6.06,11.58-10.65,2.73-4.59,4.1-10.04,4.1-16.35s-1.37-11.83-4.1-16.4Zm-12.21,30.85c-1.58,4.06-3.8,7.2-6.68,9.42-2.87,2.23-6.31,3.34-10.31,3.34s-7.37-1.11-10.27-3.34c-2.9-2.22-5.14-5.37-6.72-9.42-1.58-4.06-2.37-8.87-2.37-14.45s.79-10.4,2.37-14.45c1.58-4.06,3.82-7.2,6.72-9.42,2.9-2.22,6.32-3.34,10.27-3.34s7.44,1.11,10.31,3.34c2.87,2.23,5.1,5.37,6.68,9.42,1.58,4.06,2.37,8.87,2.37,14.45s-.79,10.39-2.37,14.45Z"/><path class="j" d="M496.64,279.79h6.51v-.85h-1.1c-1.47,0-2.72-.52-3.76-1.56-1.04-1.04-1.59-2.29-1.65-3.76v-49.52h11.24c2.65,.06,4.75,.86,6.3,2.41,1.55,1.55,2.32,3.65,2.32,6.3v.93l.85,.08v-14.79c-.51,.23-1.35,.45-2.54,.68-1.18,.23-2.47,.42-3.85,.59-1.38,.17-2.69,.25-3.93,.25h-33.47c-1.18,0-2.48-.08-3.89-.25-1.41-.17-2.69-.37-3.85-.59-1.16-.22-2.01-.45-2.58-.68v14.79l.85-.08v-.93c0-2.65,.77-4.75,2.32-6.3s3.62-2.35,6.21-2.41h11.32v49.52c-.06,1.47-.61,2.72-1.65,3.76-1.04,1.04-2.3,1.56-3.76,1.56h-1.1v.85h19.18Z"/><path class="j" d="M587.11,223.04c1.04-1.04,2.29-1.56,3.76-1.56h1.1v-.85h-25.69v.85h1.1c1.46,0,2.73,.52,3.8,1.56,1.07,1.04,1.61,2.3,1.61,3.76v21.72h-27.38v-21.72c.06-1.46,.61-2.72,1.65-3.76s2.29-1.56,3.76-1.56h1.1v-.85h-25.69v.85h1.1c1.46,0,2.72,.52,3.76,1.56,1.04,1.04,1.59,2.3,1.65,3.76v46.82c-.06,1.47-.61,2.72-1.65,3.76s-2.3,1.56-3.76,1.56h-1.1v.85h25.69v-.85h-1.1c-1.47,0-2.72-.52-3.76-1.56-1.04-1.04-1.59-2.29-1.65-3.76v-21.47h27.38v21.47c0,1.47-.54,2.72-1.61,3.76-1.07,1.04-2.34,1.56-3.8,1.56h-1.1v.85h25.69v-.85h-1.1c-1.47,0-2.72-.52-3.76-1.56-1.04-1.04-1.59-2.29-1.65-3.76v-46.82c.06-1.46,.61-2.72,1.65-3.76Z"/></g></svg>