<?xml version="1.0" encoding="UTF-8"?><svg id="a" xmlns="http://www.w3.org/2000/svg" xmlns:xlink="http://www.w3.org/1999/xlink" viewBox="0 0 358.43 358.43"><defs><style>.j{fill:url(#c);}.k{fill:url(#f);}.l{fill:url(#g);}.m{fill:url(#b);}.n{fill:url(#i);}.o{fill:url(#h);}.p{fill:url(#d);}.q{fill:url(#e);}</style><linearGradient id="b" x1="102.46" y1="35.94" x2="139.67" y2="331.82" gradientTransform="matrix(1, 0, 0, 1, 0, 0)" gradientUnits="userSpaceOnUse"><stop offset="0" stop-color="#d534ff"/><stop offset="1" stop-color="#2463ff"/></linearGradient><linearGradient id="c" x1="76.09" y1="39.25" x2="113.31" y2="335.13" xlink:href="#b"/><linearGradient id="d" x1="107.84" y1="35.26" x2="145.06" y2="331.14" xlink:href="#b"/><linearGradient id="e" x1="112.97" y1="34.62" x2="150.18" y2="330.49" xlink:href="#b"/><linearGradient id="f" x1="162.42" y1="28.4" x2="199.64" y2="324.27" xlink:href="#b"/><linearGradient id="g" x1="129.21" y1="32.57" x2="166.42" y2="328.45" xlink:href="#b"/><linearGradient id="h" x1="177.18" y1="26.54" x2="214.39" y2="322.42" xlink:href="#b"/><linearGradient id="i" x1="149.14" y1="30.07" x2="186.36" y2="325.94" xlink:href="#b"/></defs><path class="m" d="M118.05,135.14l6.2-32.01,3.91-20c-.69,.1-1.38,.2-2.07,.31-.07,0-.14,.02-.21,.03-5.47,.83-11.02,1.84-16.63,3.04,0,0,0,0,.02,0,.02,.02,.05,.04,.08,.07,.02,.02,.05,.04,.07,.07,.02,.02,.04,.03,.05,.05,.1,.09,.19,.18,.28,.3,.02,.03,.04,.04,.06,.07,.03,.03,.04,.05,.06,.08,1.22,1.52,3.86,6.21,4.42,18.59,2.57-.67,5.11-1.3,7.64-1.85l-1.6,8.26c-1.97,.47-3.95,.99-5.96,1.53-.15,6.43-.77,14.35-2.12,24.06,1.12-.47,2.25-.93,3.39-1.37l-3.35,17.26c-1,.45-1.97,.92-2.89,1.4-.64,3.49-1.27,6.94-1.9,10.34h0c-.65,3.56-1.3,7.07-1.93,10.54-.05,.25-.07,.39-.08,.46-.99,5.38-1.96,10.69-2.94,15.96-.04,.22-.08,.45-.12,.67h4.4l11.22-57.86Z"/><path class="j" d="M114.82,273.85h0c-6.47-1.29-12.55-3.23-14.89-6.09-.87-1.06-1.21-2.21-1.02-3.42,2.51-16.45,5.46-32.45,5.49-32.61h0l5.17-26.68h-26.43l-.54,2.94h17.08c-.11,.59-.21,1.18-.33,1.77-2.45,13.33-4.93,26.8-7.59,41.15-2.83,13.49-.43,23.98,14.06,27.06h15.04c-2.52-.51-4.52-2.05-6.04-4.12Z"/><path class="p" d="M108.09,193h3.81l17.63-90.92,3.84-19.64c-1.3,.16-2.6,.33-3.91,.52l-3.99,20.41-17.38,89.64Z"/><path class="q" d="M113.15,193h3.91l12.25-63.19,5.55-28.66,3.78-19.32c-.65,.06-1.31,.14-1.96,.21-.67,.07-1.35,.15-2.03,.24l-5.5,28.16-16,82.56Z"/><path class="k" d="M255.52,181.06c2.09-2.39,4.12-4.82,5.69-7.35,3.65-5.85,2.57-10.94,2-14.89-5.08-34.36-49.45-49.2-83.5-51.92-13.23-1.04-27.65-.54-43.01,1.93l1-5.17,.55-2.84c14.94-2.2,29.02-2.61,42.03-1.57,23.67,1.9,50.22,9.65,68.3,24.24,10.16,8.22,21.78,21.82,18.63,36.98,6.73-17.25,8.43-40.57-9.65-55.57-21.38-17.71-65.38-28.49-117.64-23.19l-3.95,20.13-17.67,91.17h5c.04-.22,.09-.45,.13-.67,2.92-14.97,5.82-29.95,8.66-45.11-1,.23-2,.48-2.99,.73l3.23-16.64c.69-.15,1.38-.31,2.08-.45,40.6-8.49,85.69,2.39,106.28,21.87,.02,0,.03,.03,.05,.04,0,0,26.59,24.52-9.67,39.17-1.78,.72-4.12,1.57-6.73,2.29H85.12l-.85,4.63H248.73l20.24,26.42c2.02,2.85,3.48,4.67,4.54,5.99,2.31,2.87,2.72,3.39,1.84,6.22-1.59,5.09-6.38,13.95-14.65,22.13-6.48,6.41-17.24,14.45-31.67,16.28h-.07l-93.65,.4c-.49-.02-5.25-.26-11.16-.98,.35,.3,.71,.58,1.09,.86,.58,.44,1.13,.76,1.71,1.01t0,.02h.03c.94,.41,1.92,.63,3.04,.69,3.53,.4,7.93,.09,7.93,.09l54.84-.04,33.45,.02c.42,0,1.03,0,1.76-.05,0,0,.55,.02,1.55-.03,2.22-.08,4.53-.42,6.88-.96,.05,0,.11-.02,.16-.04,.05-.01,.11-.02,.16-.04,10.92-2.43,30.11-10.36,46.13-36.08,1.34-1.97,2.36-3.66,2.81-4.75,6.19-14.86-9.93-38.62-30.18-54.94Z"/><path class="l" d="M140.21,145.58c-3.21,17.04-6.14,32.32-9.04,47.42h20.99c3.07-16.45,6.15-32.94,9.21-49.38-5.61-.1-13.2,.57-21.17,1.96Z"/><path class="o" d="M142.52,252.97c3.65,5.32,9.33,6.61,9.85,6.72,1.71,.07,46.84,1.94,80.04-.78,17.36-1.42,26.27-7.82,30.68-12.94,4.2-4.87,5.24-9.55,5.43-10.62l-22.19-30.29h-100.83c-.4,2.37-1.96,11.45-5.48,30.08-1.39,7.38-.55,13.38,2.5,17.83Zm.39-10.16c2.15-11.6,4.31-23.22,6.48-34.82h70.35c3.6,3.19,8.6,7.85,13.36,13.01,9.49,10.29,17.98,22.59,12.38,29.28-.05,.07-.11,.13-.15,.19-.06,.07-.12,.14-.18,.2-1.23,1.3-3.02,2.36-5.5,3.14-.02,0-.04,0-.05,.01-.76,.13-1.36,.25-1.83,.38-9.85,1.67-30.44,3.41-73.51,3.1-5.74-.03-9.46-.57-11.85-1.19-1.7-.68-3.84-1.85-6.07-3.79-3.98-3.77-3.5-8.9-3.43-9.52Z"/><path class="n" d="M228.9,274.66c14.08-1.8,24.59-9.65,30.93-15.93,8.11-8.02,12.79-16.66,14.34-21.62,.69-2.21,.65-2.26-1.62-5.08-1.08-1.34-2.55-3.17-4.58-6.03l-19.85-25.92H72.08l-.69,3.74H246.95l22.86,31.19-.03,.24c-.03,.23-.73,5.64-5.71,11.45-4.56,5.32-13.73,11.97-31.56,13.43-13.9,1.14-29.89,1.47-43.92,1.47-20.03,0-36.06-.68-36.33-.69h-.08c-.27-.06-6.56-1.26-10.66-7.23-3.25-4.73-4.16-11.05-2.7-18.77,3.42-18.12,4.99-27.2,5.44-29.85h-33.44l-5.22,26.91h0c-.05,.28-2.98,16.21-5.48,32.57-.13,.86,.11,1.66,.76,2.45,2,2.45,7.21,4.19,12.98,5.41-2-3.46-2.89-7.85-2.81-11.27,.05-3.04,.47-6.12,.98-8.99,2.84-15.2,5.47-28.95,8.04-42.38,.11-.58,.22-1.17,.34-1.77h7.86c-2.92,15-5.8,29.97-8.6,45.12-.98,5.24-1.63,11.91,.41,16.85,.58,1.43,1.41,2.72,2.51,3.9,6.84,.91,12.61,1.2,12.73,1.2l93.57-.4Zm-88.4-16.9c.17,.27,.34,.54,.56,.82,3.34,4.24,10.91,6.37,23.13,6.45,2.23,.02,5.84,.05,10.34,.05,10.31,0,25.28-.14,38.98-.84,16.04-.83,25.62-2.14,31.48-3.69-.02,.22-.05,.43-.09,.65-.49,2.06-1.97,4.76-6.11,6.47-1.78,.55-3.63,1.01-5.54,1.39-1.36,.18-2.49,.39-3.45,.62-7.53,1.2-15.67,1.49-23.43,1.91-5.36,.32-34.95,.96-52.69,1.1-12.59-.49-13.25-9.79-13.29-10.99-.04-1.26,0-2.57,.11-3.95Z"/></svg>